<svg width="213" height="50" viewBox="0 0 213 50" fill="none" xmlns="http://www.w3.org/2000/svg">
<path d="M9.36532 19.2C9.05865 19.2 8.74532 18.9733 8.42532 18.52C8.11865 18.0533 7.70532 17.32 7.18532 16.32L4.90532 11.86L4.08532 16.8C4.04532 17.1333 3.92532 17.4133 3.72532 17.64V17.66C3.76532 17.6733 3.85865 17.7067 4.00532 17.76C4.15198 17.8133 4.28532 17.84 4.40532 17.84C4.59198 17.84 4.76532 17.8067 4.92532 17.74C5.09865 17.66 5.20532 17.62 5.24532 17.62C5.33865 17.62 5.38532 17.66 5.38532 17.74C5.38532 17.8467 5.29198 17.9933 5.10532 18.18C4.59865 18.7267 4.19198 19 3.88532 19C3.76532 19 3.54532 18.9467 3.22532 18.84C2.83865 18.72 2.56532 18.66 2.40532 18.66C2.19198 18.66 1.97865 18.72 1.76532 18.84C1.56532 18.9467 1.44532 19 1.40532 19C1.33865 19 1.30532 18.9333 1.30532 18.8C1.30532 18.6533 1.33865 18.52 1.40532 18.4C1.47198 18.28 1.57865 18.14 1.72532 17.98C2.04532 17.6867 2.25198 17.48 2.34532 17.36C2.43865 17.24 2.51865 17.0667 2.58532 16.84C2.65198 16.6133 2.73198 16.1867 2.82532 15.56L4.28532 6.4C4.19198 6.4 4.02532 6.38667 3.78532 6.36C3.69198 6.34667 3.57865 6.33333 3.44532 6.32C3.32532 6.30667 3.17865 6.3 3.00532 6.3C2.25865 6.3 1.69198 6.54667 1.30532 7.04C1.27865 7.08 1.23198 7.15333 1.16532 7.26C1.09865 7.35333 1.03865 7.4 0.985316 7.4C0.918649 7.4 0.885316 7.34 0.885316 7.22C0.885316 7.08667 0.905316 6.97333 0.945316 6.88C1.07865 6.32 1.36532 5.88667 1.80532 5.58C2.24532 5.27333 2.78532 5.12 3.42532 5.12L4.08532 5.14C4.45865 5.16667 4.75865 5.18 4.98532 5.18C5.19865 5.18 5.42532 5.16667 5.66532 5.14L6.16532 5.12C5.89865 5.93333 5.70532 6.74 5.58532 7.54L5.06532 10.96L7.76532 7.04C8.73865 5.64 9.52532 4.6 10.1253 3.92C10.7253 3.24 11.372 2.73333 12.0653 2.4C12.5853 2.14667 13.132 1.97333 13.7053 1.88C14.2786 1.78667 15.0586 1.7 16.0453 1.62C16.2186 1.60667 16.4053 1.57333 16.6053 1.52C16.752 1.46667 16.8386 1.44 16.8653 1.44C16.932 1.44 16.9653 1.48 16.9653 1.56C16.9653 1.76 16.8653 1.94667 16.6653 2.12C16.4653 2.29333 16.152 2.41333 15.7253 2.48C15.2586 2.53333 14.9653 2.56667 14.8453 2.58C14.352 2.62 13.952 2.68 13.6453 2.76C13.3386 2.82667 12.992 2.98 12.6053 3.22C12.1653 3.5 11.6453 3.98667 11.0453 4.68C10.4586 5.37333 9.72532 6.36 8.84532 7.64L6.32532 11.32L8.84532 16.2C9.11198 16.72 9.31198 17.0733 9.44532 17.26C9.59198 17.4333 9.75198 17.52 9.92532 17.52C10.0853 17.52 10.2653 17.4333 10.4653 17.26C10.6786 17.0867 10.8653 16.88 11.0253 16.64C11.092 16.5467 11.1586 16.4667 11.2253 16.4C11.292 16.3333 11.352 16.3 11.4053 16.3C11.4986 16.3 11.5453 16.3733 11.5453 16.52C11.5453 16.76 11.4186 17.1 11.1653 17.54C10.9253 17.9667 10.632 18.3533 10.2853 18.7C9.95198 19.0333 9.64532 19.2 9.36532 19.2ZM21.5566 19.2C20.9299 19.2 20.5432 18.7467 20.3966 17.84C20.2766 17.1067 20.2166 15.7933 20.2166 13.9L19.7166 14.28H17.2766C16.9699 15.0667 16.6099 15.7733 16.1966 16.4C15.7966 17.0267 15.3699 17.4933 14.9166 17.8V17.84C15.0899 17.92 15.2566 17.96 15.4166 17.96C15.6166 17.96 15.8032 17.9267 15.9766 17.86C16.1632 17.7933 16.2766 17.76 16.3166 17.76C16.4099 17.76 16.4566 17.7933 16.4566 17.86C16.4566 17.9533 16.3632 18.1133 16.1766 18.34C15.9632 18.5533 15.7366 18.72 15.4966 18.84C15.2566 18.9467 15.0299 19 14.8166 19C14.6432 19 14.3966 18.9467 14.0766 18.84C13.7566 18.7333 13.5166 18.68 13.3566 18.68C13.1566 18.68 12.9566 18.7333 12.7566 18.84C12.5432 18.9467 12.4032 19 12.3366 19C12.2699 19 12.2366 18.9667 12.2366 18.9C12.2366 18.7667 12.2899 18.6133 12.3966 18.44C12.5032 18.2533 12.6299 18.1267 12.7766 18.06C12.8566 18.02 12.9366 17.9933 13.0166 17.98C13.0832 17.9667 13.1699 17.94 13.2766 17.9C13.7966 17.7 14.2499 17.34 14.6366 16.82C15.0366 16.2867 15.3766 15.6933 15.6566 15.04C15.9366 14.3733 16.2566 13.5267 16.6166 12.5C17.0299 11.34 17.3832 10.4 17.6766 9.68C17.9832 8.94667 18.3432 8.27333 18.7566 7.66C19.1699 7.03333 19.6432 6.54667 20.1766 6.2V6.18C19.9899 6.15333 19.8499 6.12667 19.7566 6.1C19.7032 6.08667 19.5366 6.06 19.2566 6.02C18.9899 5.98 18.6432 5.96 18.2166 5.96C17.4966 5.96 16.8899 6.09333 16.3966 6.36C15.9166 6.62667 15.4632 7.06 15.0366 7.66C14.9032 7.87333 14.7966 7.98 14.7166 7.98C14.6366 7.98 14.5966 7.92667 14.5966 7.82L14.6166 7.62C14.8166 6.80667 15.2699 6.15333 15.9766 5.66C16.6966 5.16667 17.5299 4.92 18.4766 4.92C18.8632 4.92 19.4432 4.98667 20.2166 5.12C20.9366 5.25333 21.4499 5.32 21.7566 5.32C22.1032 5.32 22.4699 5.25333 22.8566 5.12V5.14C22.4966 5.74 22.2166 6.68 22.0166 7.96C21.8166 9.22667 21.7166 10.8 21.7166 12.68C21.7166 14.6133 21.7566 15.92 21.8366 16.6C21.8632 16.9867 21.9166 17.28 21.9966 17.48C22.0899 17.6667 22.2432 17.76 22.4566 17.76C22.5899 17.76 22.7166 17.7267 22.8366 17.66C22.9699 17.5933 23.1432 17.4933 23.3566 17.36C23.6099 17.1867 23.7699 17.1 23.8366 17.1C23.9166 17.1 23.9566 17.1267 23.9566 17.18C23.9566 17.2867 23.9166 17.4133 23.8366 17.56C23.5832 18.0133 23.2366 18.4 22.7966 18.72C22.3699 19.04 21.9566 19.2 21.5566 19.2ZM20.2366 13.08C20.2632 11.8533 20.3499 10.64 20.4966 9.44C20.6432 8.22667 20.8299 7.24 21.0566 6.48H21.0366C20.5166 6.72 20.0099 7.3 19.5166 8.22C19.0366 9.14 18.4832 10.5333 17.8566 12.4L17.6366 13.08H20.2366ZM28.1684 19.2C27.5684 19.2 27.0551 19.08 26.6284 18.84C26.2018 18.5867 25.8751 18.2867 25.6484 17.94C25.4351 17.5933 25.3151 17.2667 25.2884 16.96C25.2884 16.6933 25.3618 16.42 25.5084 16.14C25.6551 15.86 25.8284 15.6267 26.0284 15.44C26.2284 15.2533 26.3818 15.16 26.4884 15.16C26.5551 15.16 26.5884 15.2 26.5884 15.28C26.6551 16.0133 26.8551 16.6867 27.1884 17.3C27.5218 17.9 28.1218 18.2 28.9884 18.2C29.6818 18.2 30.2351 17.9867 30.6484 17.56C31.0618 17.1333 31.2684 16.54 31.2684 15.78C31.2684 15.3267 31.1818 14.9067 31.0084 14.52C30.8351 14.1333 30.5484 13.7 30.1484 13.22L28.1884 10.9C27.9751 10.62 27.8084 10.3333 27.6884 10.04C27.5684 9.73333 27.5084 9.36667 27.5084 8.94C27.5084 8.24667 27.6684 7.59333 27.9884 6.98C28.3084 6.36667 28.7751 5.87333 29.3884 5.5C30.0018 5.11333 30.7151 4.92 31.5284 4.92C32.1951 4.92 32.7418 5.06 33.1684 5.34C33.5951 5.60667 33.8084 5.99333 33.8084 6.5C33.8084 6.88667 33.6484 7.33333 33.3284 7.84C33.2084 8.04 33.0751 8.14 32.9284 8.14C32.8218 8.14 32.7484 8.09333 32.7084 8C32.6818 7.89333 32.6551 7.70667 32.6284 7.44C32.5884 6.37333 32.0151 5.84 30.9084 5.84C30.2418 5.84 29.7218 6.01333 29.3484 6.36C28.9751 6.69333 28.7884 7.15333 28.7884 7.74C28.7884 8.32667 29.0351 8.92 29.5284 9.52L31.4484 11.74C32.2751 12.7133 32.6884 13.7333 32.6884 14.8C32.6884 15.5733 32.4684 16.3 32.0284 16.98C31.6018 17.6467 31.0351 18.1867 30.3284 18.6C29.6351 19 28.9151 19.2 28.1684 19.2ZM44.3886 19.2C44.1619 19.2 43.9886 19.0867 43.8686 18.86C43.7486 18.62 43.6886 18.2867 43.6886 17.86C43.6886 17.5667 43.7019 17.3333 43.7286 17.16L44.4486 12.3H39.6686L38.9086 16.8C38.8419 17.1467 38.7153 17.4267 38.5286 17.64V17.66C38.5953 17.6867 38.6953 17.7267 38.8286 17.78C38.9619 17.82 39.0953 17.84 39.2286 17.84C39.3886 17.84 39.5486 17.8067 39.7086 17.74C39.8819 17.66 39.9953 17.62 40.0486 17.62C40.1286 17.62 40.1686 17.6667 40.1686 17.76C40.1686 17.88 40.0886 18.02 39.9286 18.18C39.4219 18.7267 39.0153 19 38.7086 19C38.5886 19 38.3686 18.9467 38.0486 18.84C37.6219 18.72 37.3419 18.66 37.2086 18.66C37.0086 18.66 36.8019 18.72 36.5886 18.84C36.3753 18.9467 36.2486 19 36.2086 19C36.1419 19 36.1086 18.9333 36.1086 18.8C36.1086 18.6533 36.1419 18.52 36.2086 18.4C36.2753 18.28 36.3886 18.14 36.5486 17.98C36.8686 17.6867 37.0753 17.48 37.1686 17.36C37.2619 17.24 37.3353 17.0667 37.3886 16.84C37.4553 16.6133 37.5353 16.1867 37.6286 15.56L39.1086 6.4C39.0419 6.4 38.8619 6.38667 38.5686 6.36C38.4886 6.34667 38.3819 6.33333 38.2486 6.32C38.1153 6.30667 37.9553 6.3 37.7686 6.3C36.9953 6.3 36.4286 6.54667 36.0686 7.04C36.0419 7.08 35.9953 7.15333 35.9286 7.26C35.8619 7.35333 35.8019 7.4 35.7486 7.4C35.6819 7.4 35.6486 7.34 35.6486 7.22C35.6486 7.08667 35.6686 6.97333 35.7086 6.88C35.8553 6.32 36.1419 5.88667 36.5686 5.58C37.0086 5.27333 37.5486 5.12 38.1886 5.12L38.8486 5.14C39.2219 5.16667 39.5219 5.18 39.7486 5.18C39.9886 5.18 40.2419 5.16667 40.5086 5.14L40.9286 5.12C40.7419 5.73333 40.6086 6.26667 40.5286 6.72C40.4619 7.17333 40.4219 7.44667 40.4086 7.54L39.8686 10.96H44.6886L45.2286 7.74C45.4686 6.3 45.8153 5.13333 46.2686 4.24C46.7353 3.34667 47.3419 2.67333 48.0886 2.22C48.8486 1.76667 49.8019 1.5 50.9486 1.42C51.1619 1.40667 51.3819 1.37333 51.6086 1.32C51.7286 1.26667 51.8086 1.24 51.8486 1.24C51.9153 1.24 51.9486 1.28 51.9486 1.36C51.9486 1.52 51.8553 1.7 51.6686 1.9C51.4819 2.08667 51.1619 2.21333 50.7086 2.28C49.8686 2.38667 49.2019 2.61333 48.7086 2.96C48.2153 3.29333 47.8219 3.81333 47.5286 4.52C47.2353 5.21333 46.9886 6.18667 46.7886 7.44L45.3686 16.6C45.3286 16.84 45.3086 17.02 45.3086 17.14C45.3086 17.2733 45.3286 17.3667 45.3686 17.42C45.4219 17.46 45.4953 17.48 45.5886 17.48C45.7486 17.48 45.9019 17.44 46.0486 17.36C46.1953 17.2667 46.3619 17.14 46.5486 16.98C46.7219 16.8333 46.8353 16.76 46.8886 16.76C46.9686 16.76 47.0086 16.8267 47.0086 16.96C47.0086 17.2 46.8419 17.5 46.5086 17.86C46.1886 18.22 45.8153 18.5333 45.3886 18.8C44.9619 19.0667 44.6286 19.2 44.3886 19.2ZM50.0475 19C49.9675 19 49.9275 18.9533 49.9275 18.86C49.9275 18.7 50.0008 18.5 50.1475 18.26C50.3075 18.02 50.4942 17.86 50.7075 17.78L51.2675 17.54C51.4542 17.4467 51.5808 17.28 51.6475 17.04C51.7275 16.7867 51.8075 16.36 51.8875 15.76L53.2275 6.28C52.9608 6.28 52.7075 6.28667 52.4675 6.3C52.1875 6.32667 51.9342 6.36667 51.7075 6.42C51.4808 6.47333 51.3408 6.5 51.2875 6.5C51.2075 6.5 51.1675 6.46 51.1675 6.38C51.1675 6.27333 51.2275 6.13333 51.3475 5.96C51.5075 5.70667 51.6942 5.52 51.9075 5.4C52.1208 5.26667 52.3808 5.19333 52.6875 5.18L55.5075 5.12C55.8675 5.10667 56.1342 5.07333 56.3075 5.02C56.4942 4.96667 56.6142 4.94 56.6675 4.94C56.7608 4.94 56.8075 4.98 56.8075 5.06C56.8075 5.16667 56.7542 5.3 56.6475 5.46C56.5008 5.71333 56.3742 5.88667 56.2675 5.98C56.1608 6.07333 55.9742 6.13333 55.7075 6.16L54.7275 6.22L53.2075 16.86C53.1275 17.22 53.0008 17.4867 52.8275 17.66V17.68C52.9608 17.7067 53.1342 17.7467 53.3475 17.8C53.5742 17.84 53.7742 17.86 53.9475 17.86C54.1608 17.86 54.3408 17.82 54.4875 17.74C54.6475 17.66 54.7408 17.62 54.7675 17.62C54.8342 17.62 54.8675 17.66 54.8675 17.74C54.8675 17.8733 54.7875 18.0267 54.6275 18.2C54.1475 18.7333 53.6808 19 53.2275 19C53.0675 19 52.8208 18.9533 52.4875 18.86C51.9808 18.74 51.6342 18.68 51.4475 18.68C51.1942 18.68 50.9075 18.7333 50.5875 18.84C50.2808 18.9467 50.1008 19 50.0475 19ZM60.4903 19.2C59.8903 19.2 59.377 19.08 58.9503 18.84C58.5236 18.5867 58.197 18.2867 57.9703 17.94C57.757 17.5933 57.637 17.2667 57.6103 16.96C57.6103 16.6933 57.6836 16.42 57.8303 16.14C57.977 15.86 58.1503 15.6267 58.3503 15.44C58.5503 15.2533 58.7036 15.16 58.8103 15.16C58.877 15.16 58.9103 15.2 58.9103 15.28C58.977 16.0133 59.177 16.6867 59.5103 17.3C59.8436 17.9 60.4436 18.2 61.3103 18.2C62.0036 18.2 62.557 17.9867 62.9703 17.56C63.3836 17.1333 63.5903 16.54 63.5903 15.78C63.5903 15.3267 63.5036 14.9067 63.3303 14.52C63.157 14.1333 62.8703 13.7 62.4703 13.22L60.5103 10.9C60.297 10.62 60.1303 10.3333 60.0103 10.04C59.8903 9.73333 59.8303 9.36667 59.8303 8.94C59.8303 8.24667 59.9903 7.59333 60.3103 6.98C60.6303 6.36667 61.097 5.87333 61.7103 5.5C62.3236 5.11333 63.037 4.92 63.8503 4.92C64.517 4.92 65.0636 5.06 65.4903 5.34C65.917 5.60667 66.1303 5.99333 66.1303 6.5C66.1303 6.88667 65.9703 7.33333 65.6503 7.84C65.5303 8.04 65.397 8.14 65.2503 8.14C65.1436 8.14 65.0703 8.09333 65.0303 8C65.0036 7.89333 64.977 7.70667 64.9503 7.44C64.9103 6.37333 64.337 5.84 63.2303 5.84C62.5636 5.84 62.0436 6.01333 61.6703 6.36C61.297 6.69333 61.1103 7.15333 61.1103 7.74C61.1103 8.32667 61.357 8.92 61.8503 9.52L63.7703 11.74C64.597 12.7133 65.0103 13.7333 65.0103 14.8C65.0103 15.5733 64.7903 16.3 64.3503 16.98C63.9236 17.6467 63.357 18.1867 62.6503 18.6C61.957 19 61.237 19.2 60.4903 19.2ZM76.7105 19.2C76.4838 19.2 76.3105 19.0867 76.1905 18.86C76.0705 18.62 76.0105 18.2867 76.0105 17.86C76.0105 17.5667 76.0238 17.3333 76.0505 17.16L76.7705 12.3H71.9905L71.2305 16.8C71.1638 17.1467 71.0371 17.4267 70.8505 17.64V17.66C70.9171 17.6867 71.0171 17.7267 71.1505 17.78C71.2838 17.82 71.4171 17.84 71.5505 17.84C71.7105 17.84 71.8705 17.8067 72.0305 17.74C72.2038 17.66 72.3171 17.62 72.3705 17.62C72.4505 17.62 72.4905 17.6667 72.4905 17.76C72.4905 17.88 72.4105 18.02 72.2505 18.18C71.7438 18.7267 71.3371 19 71.0305 19C70.9105 19 70.6905 18.9467 70.3705 18.84C69.9438 18.72 69.6638 18.66 69.5305 18.66C69.3305 18.66 69.1238 18.72 68.9105 18.84C68.6971 18.9467 68.5705 19 68.5305 19C68.4638 19 68.4305 18.9333 68.4305 18.8C68.4305 18.6533 68.4638 18.52 68.5305 18.4C68.5971 18.28 68.7105 18.14 68.8705 17.98C69.1905 17.6867 69.3971 17.48 69.4905 17.36C69.5838 17.24 69.6571 17.0667 69.7105 16.84C69.7771 16.6133 69.8571 16.1867 69.9505 15.56L71.4305 6.4C71.3638 6.4 71.1838 6.38667 70.8905 6.36C70.8105 6.34667 70.7038 6.33333 70.5705 6.32C70.4371 6.30667 70.2771 6.3 70.0905 6.3C69.3171 6.3 68.7505 6.54667 68.3905 7.04C68.3638 7.08 68.3171 7.15333 68.2505 7.26C68.1838 7.35333 68.1238 7.4 68.0705 7.4C68.0038 7.4 67.9705 7.34 67.9705 7.22C67.9705 7.08667 67.9905 6.97333 68.0305 6.88C68.1771 6.32 68.4638 5.88667 68.8905 5.58C69.3305 5.27333 69.8705 5.12 70.5105 5.12L71.1705 5.14C71.5438 5.16667 71.8438 5.18 72.0705 5.18C72.3105 5.18 72.5638 5.16667 72.8305 5.14L73.2505 5.12C73.0638 5.73333 72.9305 6.26667 72.8505 6.72C72.7838 7.17333 72.7438 7.44667 72.7305 7.54L72.1905 10.96H77.0105L77.5505 7.74C77.7905 6.3 78.1371 5.13333 78.5905 4.24C79.0571 3.34667 79.6638 2.67333 80.4105 2.22C81.1705 1.76667 82.1238 1.5 83.2705 1.42C83.4838 1.40667 83.7038 1.37333 83.9305 1.32C84.0505 1.26667 84.1305 1.24 84.1705 1.24C84.2371 1.24 84.2705 1.28 84.2705 1.36C84.2705 1.52 84.1771 1.7 83.9905 1.9C83.8038 2.08667 83.4838 2.21333 83.0305 2.28C82.1905 2.38667 81.5238 2.61333 81.0305 2.96C80.5371 3.29333 80.1438 3.81333 79.8505 4.52C79.5571 5.21333 79.3105 6.18667 79.1105 7.44L77.6905 16.6C77.6505 16.84 77.6305 17.02 77.6305 17.14C77.6305 17.2733 77.6505 17.3667 77.6905 17.42C77.7438 17.46 77.8171 17.48 77.9105 17.48C78.0705 17.48 78.2238 17.44 78.3705 17.36C78.5171 17.2667 78.6838 17.14 78.8705 16.98C79.0438 16.8333 79.1571 16.76 79.2105 16.76C79.2905 16.76 79.3305 16.8267 79.3305 16.96C79.3305 17.2 79.1638 17.5 78.8305 17.86C78.5105 18.22 78.1371 18.5333 77.7105 18.8C77.2838 19.0667 76.9505 19.2 76.7105 19.2ZM93.1655 19.2C92.0055 19.2 91.1121 18.78 90.4855 17.94C89.8588 17.0867 89.5455 15.82 89.5455 14.14C89.5455 12.2467 89.9121 10.6067 90.6455 9.22C91.3921 7.82 92.3188 6.75333 93.4255 6.02C94.5455 5.28667 95.6388 4.92 96.7055 4.92C97.3988 4.92 98.0055 5.06 98.5255 5.34C99.0588 5.60667 99.3255 6.01333 99.3255 6.56C99.3255 6.94667 99.1721 7.37333 98.8655 7.84C98.7855 7.94667 98.7188 8.02667 98.6655 8.08C98.6121 8.12 98.5455 8.14 98.4655 8.14C98.3721 8.14 98.3055 8.1 98.2655 8.02C98.2255 7.92667 98.1988 7.82 98.1855 7.7C98.1721 7.58 98.1588 7.49333 98.1455 7.44C98.0655 6.98667 97.8521 6.63333 97.5055 6.38C97.1721 6.11333 96.6988 5.98 96.0855 5.98C95.0055 5.98 94.0988 6.39333 93.3655 7.22C92.6455 8.03333 92.1055 9.04 91.7455 10.24C91.3988 11.44 91.2255 12.6067 91.2255 13.74C91.2255 15.0333 91.4655 16.0333 91.9455 16.74C92.4255 17.4467 93.1055 17.8 93.9855 17.8C94.7055 17.8 95.3788 17.5667 96.0055 17.1C96.6455 16.6333 97.1788 15.9667 97.6055 15.1C97.6855 14.9533 97.7655 14.88 97.8455 14.88C97.9121 14.88 97.9455 14.9533 97.9455 15.1C97.9455 15.18 97.9388 15.26 97.9255 15.34C97.9121 15.42 97.8988 15.48 97.8855 15.52C97.6855 16.2267 97.3521 16.86 96.8855 17.42C96.4188 17.98 95.8588 18.42 95.2055 18.74C94.5521 19.0467 93.8721 19.2 93.1655 19.2ZM104.45 19.2C103.104 19.2 102.184 18.6867 101.69 17.66C101.21 16.6333 100.97 15.54 100.97 14.38C100.97 13.02 101.264 11.6 101.85 10.12C102.45 8.64 103.264 7.40667 104.29 6.42C105.317 5.42 106.457 4.92 107.71 4.92C108.937 4.92 109.817 5.39333 110.35 6.34C110.897 7.28667 111.17 8.46667 111.17 9.88C111.17 11.4933 110.85 13.02 110.21 14.46C109.584 15.8867 108.75 17.0333 107.71 17.9C106.684 18.7667 105.597 19.2 104.45 19.2ZM105.27 18.08C106.11 18.08 106.844 17.7067 107.47 16.96C108.11 16.2133 108.597 15.26 108.93 14.1C109.277 12.9267 109.45 11.7333 109.45 10.52C109.45 9.2 109.244 8.12 108.83 7.28C108.43 6.44 107.83 6.02 107.03 6.02C106.324 6.02 105.63 6.35333 104.95 7.02C104.27 7.67333 103.717 8.58 103.29 9.74C102.864 10.9 102.65 12.1933 102.65 13.62C102.65 15.06 102.877 16.1667 103.33 16.94C103.797 17.7 104.444 18.08 105.27 18.08ZM115.428 19.2C114.828 19.2 114.314 19.08 113.888 18.84C113.461 18.5867 113.134 18.2867 112.908 17.94C112.694 17.5933 112.574 17.2667 112.548 16.96C112.548 16.6933 112.621 16.42 112.768 16.14C112.914 15.86 113.088 15.6267 113.288 15.44C113.488 15.2533 113.641 15.16 113.748 15.16C113.814 15.16 113.848 15.2 113.848 15.28C113.914 16.0133 114.114 16.6867 114.448 17.3C114.781 17.9 115.381 18.2 116.248 18.2C116.941 18.2 117.494 17.9867 117.908 17.56C118.321 17.1333 118.528 16.54 118.528 15.78C118.528 15.3267 118.441 14.9067 118.268 14.52C118.094 14.1333 117.808 13.7 117.408 13.22L115.448 10.9C115.234 10.62 115.068 10.3333 114.948 10.04C114.828 9.73333 114.768 9.36667 114.768 8.94C114.768 8.24667 114.928 7.59333 115.248 6.98C115.568 6.36667 116.034 5.87333 116.648 5.5C117.261 5.11333 117.974 4.92 118.788 4.92C119.454 4.92 120.001 5.06 120.428 5.34C120.854 5.60667 121.068 5.99333 121.068 6.5C121.068 6.88667 120.908 7.33333 120.588 7.84C120.468 8.04 120.334 8.14 120.188 8.14C120.081 8.14 120.008 8.09333 119.968 8C119.941 7.89333 119.914 7.70667 119.888 7.44C119.848 6.37333 119.274 5.84 118.168 5.84C117.501 5.84 116.981 6.01333 116.608 6.36C116.234 6.69333 116.048 7.15333 116.048 7.74C116.048 8.32667 116.294 8.92 116.788 9.52L118.708 11.74C119.534 12.7133 119.948 13.7333 119.948 14.8C119.948 15.5733 119.728 16.3 119.288 16.98C118.861 17.6467 118.294 18.1867 117.588 18.6C116.894 19 116.174 19.2 115.428 19.2ZM123.028 19C122.948 19 122.908 18.94 122.908 18.82C122.908 18.6867 122.948 18.54 123.028 18.38C123.108 18.22 123.208 18.0867 123.328 17.98C123.661 17.7133 123.881 17.52 123.988 17.4C124.108 17.2667 124.201 17.1133 124.268 16.94C124.335 16.7667 124.415 16.46 124.508 16.02L126.568 6.4H126.428C126.348 6.4 126.175 6.38667 125.908 6.36C125.428 6.32 125.168 6.3 125.128 6.3C124.381 6.3 123.815 6.54667 123.428 7.04C123.401 7.08 123.355 7.15333 123.288 7.26C123.221 7.35333 123.161 7.4 123.108 7.4C123.041 7.4 123.008 7.34 123.008 7.22C123.008 7.08667 123.028 6.97333 123.068 6.88C123.201 6.32 123.488 5.88667 123.928 5.58C124.368 5.27333 124.908 5.12 125.548 5.12L126.208 5.14C126.581 5.16667 126.881 5.18 127.108 5.18C127.321 5.18 127.561 5.16667 127.828 5.14L128.348 5.12C128.295 5.29333 128.268 5.54667 128.268 5.88C128.268 6.32 128.328 6.88 128.448 7.56C128.581 8.22667 128.781 9.14667 129.048 10.32L129.668 13.22C129.695 13.34 129.781 13.8267 129.928 14.68C130.488 13.5733 131.228 12.1067 132.148 10.28C133.081 8.44 133.841 6.94667 134.428 5.8C134.935 4.84 135.401 4.08667 135.828 3.54C136.268 2.98 136.721 2.54 137.188 2.22C137.575 1.96667 137.968 1.78667 138.368 1.68C138.768 1.56 139.261 1.48 139.848 1.44C140.301 1.41333 140.595 1.37333 140.728 1.32C140.755 1.30667 140.781 1.29333 140.808 1.28C140.848 1.25333 140.881 1.24 140.908 1.24C140.975 1.24 141.008 1.29333 141.008 1.4C141.008 1.85333 140.595 2.14667 139.768 2.28C139.715 2.29333 139.548 2.32 139.268 2.36C138.988 2.4 138.708 2.47333 138.428 2.58C138.161 2.67333 137.928 2.8 137.728 2.96C137.288 3.30667 136.908 3.88 136.588 4.68C136.268 5.46667 136.008 6.58667 135.808 8.04C135.715 8.62667 135.601 9.68 135.468 11.2C135.308 13.2 135.088 15.0667 134.808 16.8C134.768 17.12 134.641 17.4 134.428 17.64V17.66C134.761 17.78 135.041 17.84 135.268 17.84C135.455 17.84 135.648 17.8067 135.848 17.74C136.048 17.66 136.168 17.62 136.208 17.62C136.275 17.62 136.308 17.66 136.308 17.74C136.308 17.8467 136.221 17.9933 136.048 18.18C135.581 18.7267 135.181 19 134.848 19C134.741 19 134.488 18.9467 134.088 18.84C133.608 18.72 133.295 18.66 133.148 18.66C132.908 18.66 132.655 18.72 132.388 18.84C132.135 18.9467 131.995 19 131.968 19C131.888 19 131.848 18.94 131.848 18.82C131.848 18.7 131.888 18.5667 131.968 18.42C132.048 18.26 132.168 18.1133 132.328 17.98C132.715 17.7 132.961 17.4867 133.068 17.34C133.188 17.1933 133.268 16.9933 133.308 16.74L133.408 15.84C133.555 14.5067 133.695 13.2133 133.828 11.96C133.975 10.7067 134.108 9.53333 134.228 8.44H134.188C132.135 12.08 130.815 14.6933 130.228 16.28C130.028 16.7067 129.795 17.1267 129.528 17.54C129.261 17.9533 129.068 18.16 128.948 18.16C128.841 18.16 128.788 18.0933 128.788 17.96C128.748 17.1467 128.681 16.4467 128.588 15.86C128.508 15.26 128.335 14.3133 128.068 13.02C127.855 11.9533 127.748 11.42 127.748 11.42C127.495 10.3 127.315 9.40667 127.208 8.74H127.188L125.508 16.8C125.468 17.1333 125.348 17.4133 125.148 17.64V17.66C125.508 17.78 125.775 17.84 125.948 17.84C126.108 17.84 126.261 17.8067 126.408 17.74C126.555 17.66 126.648 17.62 126.688 17.62C126.755 17.62 126.788 17.66 126.788 17.74C126.788 17.86 126.701 18.0067 126.528 18.18C126.021 18.7267 125.621 19 125.328 19C125.208 19 125.015 18.9467 124.748 18.84C124.708 18.8267 124.608 18.7933 124.448 18.74C124.301 18.6867 124.155 18.66 124.008 18.66C123.795 18.66 123.588 18.72 123.388 18.84C123.188 18.9467 123.068 19 123.028 19ZM139.143 19C139.063 19 139.023 18.9533 139.023 18.86C139.023 18.58 139.176 18.3067 139.483 18.04C139.709 17.8267 139.876 17.64 139.983 17.48C140.103 17.3067 140.203 17.08 140.283 16.8C140.376 16.5067 140.469 16.0733 140.563 15.5L142.043 6.38H141.963C141.323 6.38 140.836 6.44667 140.503 6.58C140.183 6.71333 139.936 6.85333 139.763 7C139.589 7.13333 139.483 7.2 139.443 7.2C139.363 7.2 139.323 7.14 139.323 7.02C139.323 6.9 139.343 6.8 139.383 6.72C139.529 6.25333 139.889 5.87333 140.463 5.58C141.036 5.27333 141.823 5.12 142.823 5.12C143.289 5.12 143.869 5.15333 144.563 5.22C145.629 5.28667 146.269 5.32 146.483 5.32C147.256 5.32 147.823 5.25333 148.183 5.12C148.556 4.98667 148.769 4.92 148.823 4.92C148.876 4.92 148.909 4.93333 148.923 4.96C148.949 4.97333 148.963 5.00667 148.963 5.06C148.963 5.22 148.856 5.41333 148.643 5.64C148.443 5.86667 148.129 6.06667 147.703 6.24C147.276 6.41333 146.749 6.5 146.123 6.5C145.883 6.5 145.649 6.49333 145.423 6.48C145.209 6.46667 145.016 6.45333 144.843 6.44C144.229 6.38667 143.796 6.36 143.543 6.36L142.763 11.18H146.523C146.629 11.18 146.683 11.2267 146.683 11.32C146.683 11.4133 146.596 11.5733 146.423 11.8C146.263 12.0133 146.056 12.2133 145.803 12.4C145.563 12.5733 145.329 12.66 145.103 12.66C145.036 12.66 144.869 12.6333 144.603 12.58C144.123 12.46 143.676 12.4 143.263 12.4H142.603L141.923 16.32C141.896 16.5467 141.836 16.7667 141.743 16.98C141.663 17.1933 141.576 17.3533 141.483 17.46V17.48C141.763 17.56 142.103 17.6267 142.503 17.68C142.903 17.72 143.276 17.74 143.623 17.74C144.809 17.74 145.863 17.4467 146.783 16.86C146.823 16.8467 146.863 16.8267 146.903 16.8C146.956 16.7733 147.003 16.76 147.043 16.76C147.136 16.76 147.183 16.8267 147.183 16.96C147.183 17.24 147.003 17.54 146.643 17.86C146.283 18.18 145.823 18.4533 145.263 18.68C144.703 18.8933 144.129 19 143.543 19C143.143 19 142.529 18.9333 141.703 18.8C141.089 18.7067 140.663 18.66 140.423 18.66C140.143 18.66 139.876 18.72 139.623 18.84C139.369 18.9467 139.209 19 139.143 19ZM152.437 19.02C152.411 19.02 152.384 19.0133 152.357 19C152.344 18.9733 152.337 18.94 152.337 18.9C152.337 18.7933 152.391 18.6533 152.497 18.48C152.617 18.3067 152.731 18.1667 152.837 18.06C153.064 17.86 153.231 17.6933 153.337 17.56C153.457 17.4133 153.564 17.2067 153.657 16.94C153.751 16.6733 153.844 16.28 153.937 15.76L155.537 6.46H154.177C153.204 6.46 152.531 6.57333 152.157 6.8C151.784 7.01333 151.597 7.4 151.597 7.96C151.597 8.34667 151.657 8.66667 151.777 8.92C151.911 9.16 151.977 9.30667 151.977 9.36C151.977 9.46667 151.911 9.63333 151.777 9.86C151.644 10.0867 151.491 10.2933 151.317 10.48C151.144 10.6533 151.004 10.74 150.897 10.74C150.857 10.74 150.817 10.7133 150.777 10.66C150.684 10.5 150.604 10.2867 150.537 10.02C150.484 9.75333 150.457 9.47333 150.457 9.18C150.457 8.38 150.657 7.67333 151.057 7.06C151.457 6.44667 152.024 5.97333 152.757 5.64C153.491 5.29333 154.344 5.12 155.317 5.12H158.757C159.451 5.12 159.984 5.07333 160.357 4.98C160.731 4.87333 160.984 4.71333 161.117 4.5C161.264 4.28667 161.337 4 161.337 3.64C161.337 3.24 161.277 2.92 161.157 2.68C161.037 2.44 160.977 2.3 160.977 2.26C160.977 2.16667 161.044 2.00667 161.177 1.78C161.311 1.55333 161.457 1.34667 161.617 1.16C161.791 0.973333 161.931 0.88 162.037 0.88C162.104 0.88 162.144 0.899999 162.157 0.939999C162.397 1.32667 162.517 1.84667 162.517 2.5C162.517 3.28667 162.317 3.98 161.917 4.58C161.517 5.18 160.944 5.64667 160.197 5.98C159.464 6.3 158.604 6.46 157.617 6.46H156.997L155.237 16.76C155.211 16.9733 155.164 17.1467 155.097 17.28C155.031 17.4 154.937 17.5333 154.817 17.68V17.72C155.057 17.8133 155.324 17.86 155.617 17.86C155.791 17.86 155.957 17.8267 156.117 17.76C156.291 17.6933 156.404 17.66 156.457 17.66C156.537 17.66 156.577 17.6933 156.577 17.76C156.577 17.8667 156.524 17.98 156.417 18.1C156.124 18.4333 155.871 18.6733 155.657 18.82C155.457 18.9533 155.271 19.02 155.097 19.02C154.951 19.02 154.704 18.9667 154.357 18.86C153.984 18.7533 153.724 18.7 153.577 18.7C153.391 18.7 153.137 18.7667 152.817 18.9C152.604 18.98 152.477 19.02 152.437 19.02ZM162.344 19C162.264 19 162.224 18.9533 162.224 18.86C162.224 18.7 162.298 18.5 162.444 18.26C162.604 18.02 162.791 17.86 163.004 17.78L163.564 17.54C163.751 17.4467 163.878 17.28 163.944 17.04C164.024 16.7867 164.104 16.36 164.184 15.76L165.524 6.28C165.258 6.28 165.004 6.28667 164.764 6.3C164.484 6.32667 164.231 6.36667 164.004 6.42C163.778 6.47333 163.638 6.5 163.584 6.5C163.504 6.5 163.464 6.46 163.464 6.38C163.464 6.27333 163.524 6.13333 163.644 5.96C163.804 5.70667 163.991 5.52 164.204 5.4C164.418 5.26667 164.678 5.19333 164.984 5.18L167.804 5.12C168.164 5.10667 168.431 5.07333 168.604 5.02C168.791 4.96667 168.911 4.94 168.964 4.94C169.058 4.94 169.104 4.98 169.104 5.06C169.104 5.16667 169.051 5.3 168.944 5.46C168.798 5.71333 168.671 5.88667 168.564 5.98C168.458 6.07333 168.271 6.13333 168.004 6.16L167.024 6.22L165.504 16.86C165.424 17.22 165.298 17.4867 165.124 17.66V17.68C165.258 17.7067 165.431 17.7467 165.644 17.8C165.871 17.84 166.071 17.86 166.244 17.86C166.458 17.86 166.638 17.82 166.784 17.74C166.944 17.66 167.038 17.62 167.064 17.62C167.131 17.62 167.164 17.66 167.164 17.74C167.164 17.8733 167.084 18.0267 166.924 18.2C166.444 18.7333 165.978 19 165.524 19C165.364 19 165.118 18.9533 164.784 18.86C164.278 18.74 163.931 18.68 163.744 18.68C163.491 18.68 163.204 18.7333 162.884 18.84C162.578 18.9467 162.398 19 162.344 19ZM174.156 19.2C172.996 19.2 172.103 18.78 171.476 17.94C170.849 17.0867 170.536 15.82 170.536 14.14C170.536 12.2467 170.903 10.6067 171.636 9.22C172.383 7.82 173.309 6.75333 174.416 6.02C175.536 5.28667 176.629 4.92 177.696 4.92C178.389 4.92 178.996 5.06 179.516 5.34C180.049 5.60667 180.316 6.01333 180.316 6.56C180.316 6.94667 180.163 7.37333 179.856 7.84C179.776 7.94667 179.709 8.02667 179.656 8.08C179.603 8.12 179.536 8.14 179.456 8.14C179.363 8.14 179.296 8.1 179.256 8.02C179.216 7.92667 179.189 7.82 179.176 7.7C179.163 7.58 179.149 7.49333 179.136 7.44C179.056 6.98667 178.843 6.63333 178.496 6.38C178.163 6.11333 177.689 5.98 177.076 5.98C175.996 5.98 175.089 6.39333 174.356 7.22C173.636 8.03333 173.096 9.04 172.736 10.24C172.389 11.44 172.216 12.6067 172.216 13.74C172.216 15.0333 172.456 16.0333 172.936 16.74C173.416 17.4467 174.096 17.8 174.976 17.8C175.696 17.8 176.369 17.5667 176.996 17.1C177.636 16.6333 178.169 15.9667 178.596 15.1C178.676 14.9533 178.756 14.88 178.836 14.88C178.903 14.88 178.936 14.9533 178.936 15.1C178.936 15.18 178.929 15.26 178.916 15.34C178.903 15.42 178.889 15.48 178.876 15.52C178.676 16.2267 178.343 16.86 177.876 17.42C177.409 17.98 176.849 18.42 176.196 18.74C175.543 19.0467 174.863 19.2 174.156 19.2ZM184.232 19.2C183.632 19.2 183.118 19.08 182.692 18.84C182.265 18.5867 181.938 18.2867 181.712 17.94C181.498 17.5933 181.378 17.2667 181.352 16.96C181.352 16.6933 181.425 16.42 181.572 16.14C181.718 15.86 181.892 15.6267 182.092 15.44C182.292 15.2533 182.445 15.16 182.552 15.16C182.618 15.16 182.652 15.2 182.652 15.28C182.718 16.0133 182.918 16.6867 183.252 17.3C183.585 17.9 184.185 18.2 185.052 18.2C185.745 18.2 186.298 17.9867 186.712 17.56C187.125 17.1333 187.332 16.54 187.332 15.78C187.332 15.3267 187.245 14.9067 187.072 14.52C186.898 14.1333 186.612 13.7 186.212 13.22L184.252 10.9C184.038 10.62 183.872 10.3333 183.752 10.04C183.632 9.73333 183.572 9.36667 183.572 8.94C183.572 8.24667 183.732 7.59333 184.052 6.98C184.372 6.36667 184.838 5.87333 185.452 5.5C186.065 5.11333 186.778 4.92 187.592 4.92C188.258 4.92 188.805 5.06 189.232 5.34C189.658 5.60667 189.872 5.99333 189.872 6.5C189.872 6.88667 189.712 7.33333 189.392 7.84C189.272 8.04 189.138 8.14 188.992 8.14C188.885 8.14 188.812 8.09333 188.772 8C188.745 7.89333 188.718 7.70667 188.692 7.44C188.652 6.37333 188.078 5.84 186.972 5.84C186.305 5.84 185.785 6.01333 185.412 6.36C185.038 6.69333 184.852 7.15333 184.852 7.74C184.852 8.32667 185.098 8.92 185.592 9.52L187.512 11.74C188.338 12.7133 188.752 13.7333 188.752 14.8C188.752 15.5733 188.532 16.3 188.092 16.98C187.665 17.6467 187.098 18.1867 186.392 18.6C185.698 19 184.978 19.2 184.232 19.2ZM200.915 19.2C200.141 19.2 199.481 18.9467 198.935 18.44C198.401 17.9333 198.135 17.18 198.135 16.18C198.135 15.14 198.455 14.1533 199.095 13.22C199.735 12.2733 200.615 11.4867 201.735 10.86C201.481 9.92667 201.355 9.16667 201.355 8.58C201.355 7.96667 201.495 7.38 201.775 6.82C202.055 6.24667 202.441 5.78667 202.935 5.44C203.428 5.09333 203.981 4.92 204.595 4.92C205.275 4.92 205.721 5.1 205.935 5.46C206.161 5.82 206.275 6.20667 206.275 6.62C206.275 7.95333 205.241 9.31333 203.175 10.7C203.228 10.98 203.395 11.4867 203.675 12.22C204.168 11.7 204.715 11.3533 205.315 11.18C205.928 10.9933 206.755 10.9 207.795 10.9L209.295 10.92C210.028 10.92 210.615 10.7467 211.055 10.4C211.508 10.0533 211.735 9.58 211.735 8.98C211.735 8.74 211.701 8.55333 211.635 8.42C211.581 8.28667 211.515 8.16667 211.435 8.06C211.355 7.95333 211.315 7.88 211.315 7.84C211.315 7.70667 211.461 7.46 211.755 7.1C212.048 6.74 212.248 6.56 212.355 6.56C212.368 6.56 212.395 6.58667 212.435 6.64C212.528 6.86667 212.595 7.07333 212.635 7.26C212.675 7.44667 212.695 7.67333 212.695 7.94C212.695 8.76667 212.488 9.49333 212.075 10.12C211.661 10.7467 211.075 11.2333 210.315 11.58C209.555 11.9267 208.681 12.1 207.695 12.1H207.595C207.395 12.9133 207.108 13.7133 206.735 14.5C206.375 15.2733 205.935 15.96 205.415 16.56C205.868 17.4267 206.295 17.86 206.695 17.86C207.001 17.86 207.341 17.5867 207.715 17.04C207.728 17.0133 207.755 16.9733 207.795 16.92C207.848 16.8533 207.895 16.82 207.935 16.82C208.041 16.82 208.095 16.8933 208.095 17.04L208.055 17.28C208.001 17.52 207.861 17.7933 207.635 18.1C207.421 18.3933 207.168 18.6533 206.875 18.88C206.595 19.0933 206.321 19.2 206.055 19.2C205.788 19.2 205.521 19.08 205.255 18.84C204.988 18.5867 204.701 18.2 204.395 17.68C203.808 18.1733 203.215 18.5533 202.615 18.82C202.015 19.0733 201.448 19.2 200.915 19.2ZM202.995 10.16C203.635 9.72 204.128 9.25333 204.475 8.76C204.821 8.25333 204.995 7.74667 204.995 7.24C204.995 6.77333 204.895 6.4 204.695 6.12C204.495 5.84 204.201 5.7 203.815 5.7C203.401 5.7 203.095 5.86667 202.895 6.2C202.695 6.53333 202.595 6.98667 202.595 7.56C202.595 8.2 202.728 9.06667 202.995 10.16ZM201.935 18.16C202.628 18.16 203.355 17.8267 204.115 17.16C203.661 16.24 203.268 15.3267 202.935 14.42C202.601 13.5133 202.268 12.5067 201.935 11.4C201.241 11.8267 200.708 12.3933 200.335 13.1C199.961 13.8067 199.775 14.58 199.775 15.42C199.775 16.3667 199.981 17.06 200.395 17.5C200.821 17.94 201.335 18.16 201.935 18.16ZM205.115 15.98C205.448 15.4333 205.735 14.8067 205.975 14.1C206.215 13.3933 206.381 12.7267 206.475 12.1H206.375C205.775 12.1 205.268 12.1533 204.855 12.26C204.455 12.3667 204.128 12.54 203.875 12.78C204.461 14.4867 204.875 15.5533 205.115 15.98ZM70.3716 44C70.2649 44 70.2116 43.9533 70.2116 43.86C70.2116 43.7 70.2716 43.5533 70.3916 43.42C70.5116 43.2733 70.6916 43.1133 70.9316 42.94C71.2382 42.7133 71.4516 42.5067 71.5716 42.32C71.6916 42.12 71.7716 41.8867 71.8116 41.62L73.0316 33.44C73.0716 33.12 73.2849 32.7933 73.6716 32.46C74.0582 32.1133 74.4049 31.94 74.7116 31.94C74.8582 31.94 74.9316 31.9867 74.9316 32.08C74.9316 32.12 74.8649 32.2267 74.7316 32.4C74.5982 32.5733 74.4982 32.8867 74.4316 33.34L73.9916 36.34H75.7316C76.4916 36.14 77.1049 35.74 77.5716 35.14C78.0382 34.5267 78.2716 33.8867 78.2716 33.22C78.2716 32.5267 78.0049 31.9933 77.4716 31.62C76.9382 31.2467 76.1716 31.06 75.1716 31.06C73.3716 31.06 71.9249 31.7267 70.8316 33.06C70.7382 33.18 70.6516 33.28 70.5716 33.36C70.5049 33.44 70.4382 33.48 70.3716 33.48C70.2516 33.48 70.1916 33.4267 70.1916 33.32C70.1916 33.2533 70.2116 33.16 70.2516 33.04C70.5182 32.0933 71.1582 31.34 72.1716 30.78C73.1982 30.2067 74.4182 29.92 75.8316 29.92C77.0316 29.92 77.9849 30.1733 78.6916 30.68C79.3982 31.1733 79.7516 31.8667 79.7516 32.76C79.7516 33.4933 79.5182 34.2 79.0516 34.88C78.5982 35.5467 77.9782 36.0933 77.1916 36.52C78.6716 37.3467 79.4116 38.4867 79.4116 39.94C79.4116 40.7533 79.1982 41.4667 78.7716 42.08C78.3449 42.6933 77.7516 43.1667 76.9916 43.5C76.2449 43.8333 75.3982 44 74.4516 44C73.9849 44 73.3449 43.94 72.5316 43.82C71.9982 43.74 71.6582 43.7 71.5116 43.7C71.2316 43.7 70.9849 43.7533 70.7716 43.86C70.5716 43.9533 70.4382 44 70.3716 44ZM74.7916 42.8C75.8849 42.8 76.6916 42.6067 77.2116 42.22C77.7316 41.8333 77.9916 41.22 77.9916 40.38C77.9916 39.6733 77.8116 39.06 77.4516 38.54C77.0916 38.0067 76.5649 37.5933 75.8716 37.3H73.8316L73.2516 41.28C73.1982 41.6 73.1249 41.86 73.0316 42.06C72.9516 42.2467 72.8316 42.42 72.6716 42.58V42.62C73.1116 42.74 73.8182 42.8 74.7916 42.8ZM89.7058 44.2C89.0791 44.2 88.6925 43.7467 88.5458 42.84C88.4258 42.1067 88.3658 40.7933 88.3658 38.9L87.8658 39.28H85.4258C85.1191 40.0667 84.7591 40.7733 84.3458 41.4C83.9458 42.0267 83.5191 42.4933 83.0658 42.8V42.84C83.2391 42.92 83.4058 42.96 83.5658 42.96C83.7658 42.96 83.9525 42.9267 84.1258 42.86C84.3125 42.7933 84.4258 42.76 84.4658 42.76C84.5591 42.76 84.6058 42.7933 84.6058 42.86C84.6058 42.9533 84.5125 43.1133 84.3258 43.34C84.1125 43.5533 83.8858 43.72 83.6458 43.84C83.4058 43.9467 83.1791 44 82.9658 44C82.7925 44 82.5458 43.9467 82.2258 43.84C81.9058 43.7333 81.6658 43.68 81.5058 43.68C81.3058 43.68 81.1058 43.7333 80.9058 43.84C80.6925 43.9467 80.5525 44 80.4858 44C80.4191 44 80.3858 43.9667 80.3858 43.9C80.3858 43.7667 80.4391 43.6133 80.5458 43.44C80.6525 43.2533 80.7791 43.1267 80.9258 43.06C81.0058 43.02 81.0858 42.9933 81.1658 42.98C81.2325 42.9667 81.3191 42.94 81.4258 42.9C81.9458 42.7 82.3991 42.34 82.7858 41.82C83.1858 41.2867 83.5258 40.6933 83.8058 40.04C84.0858 39.3733 84.4058 38.5267 84.7658 37.5C85.1791 36.34 85.5325 35.4 85.8258 34.68C86.1325 33.9467 86.4925 33.2733 86.9058 32.66C87.3191 32.0333 87.7925 31.5467 88.3258 31.2V31.18C88.1391 31.1533 87.9991 31.1267 87.9058 31.1C87.8525 31.0867 87.6858 31.06 87.4058 31.02C87.1391 30.98 86.7925 30.96 86.3658 30.96C85.6458 30.96 85.0391 31.0933 84.5458 31.36C84.0658 31.6267 83.6125 32.06 83.1858 32.66C83.0525 32.8733 82.9458 32.98 82.8658 32.98C82.7858 32.98 82.7458 32.9267 82.7458 32.82L82.7658 32.62C82.9658 31.8067 83.4191 31.1533 84.1258 30.66C84.8458 30.1667 85.6791 29.92 86.6258 29.92C87.0125 29.92 87.5925 29.9867 88.3658 30.12C89.0858 30.2533 89.5991 30.32 89.9058 30.32C90.2525 30.32 90.6191 30.2533 91.0058 30.12V30.14C90.6458 30.74 90.3658 31.68 90.1658 32.96C89.9658 34.2267 89.8658 35.8 89.8658 37.68C89.8658 39.6133 89.9058 40.92 89.9858 41.6C90.0125 41.9867 90.0658 42.28 90.1458 42.48C90.2391 42.6667 90.3925 42.76 90.6058 42.76C90.7391 42.76 90.8658 42.7267 90.9858 42.66C91.1191 42.5933 91.2925 42.4933 91.5058 42.36C91.7591 42.1867 91.9191 42.1 91.9858 42.1C92.0658 42.1 92.1058 42.1267 92.1058 42.18C92.1058 42.2867 92.0658 42.4133 91.9858 42.56C91.7325 43.0133 91.3858 43.4 90.9458 43.72C90.5191 44.04 90.1058 44.2 89.7058 44.2ZM88.3858 38.08C88.4125 36.8533 88.4991 35.64 88.6458 34.44C88.7925 33.2267 88.9791 32.24 89.2058 31.48H89.1858C88.6658 31.72 88.1591 32.3 87.6658 33.22C87.1858 34.14 86.6325 35.5333 86.0058 37.4L85.7858 38.08H88.3858ZM101.863 44.2C101.703 44.2 101.623 44.12 101.623 43.96C101.623 43.9333 101.649 43.7867 101.703 43.52C101.809 42.92 101.863 42.4867 101.863 42.22C101.863 41.9267 101.803 41.6133 101.683 41.28C101.456 40.5867 101.049 39.7333 100.463 38.72L99.6828 37.28C99.1495 36.2933 98.6561 35.2867 98.2028 34.26L98.0228 33.84H97.9828L96.7228 41.8C96.6828 42.16 96.5761 42.44 96.4028 42.64V42.66C96.7628 42.78 97.0295 42.84 97.2028 42.84C97.3895 42.84 97.5561 42.8067 97.7028 42.74C97.8495 42.66 97.9428 42.62 97.9828 42.62C98.0495 42.62 98.0828 42.66 98.0828 42.74C98.0828 42.86 97.9961 43.0067 97.8228 43.18C97.3161 43.7267 96.9028 44 96.5828 44C96.4628 44 96.2695 43.9467 96.0028 43.84C95.9628 43.8267 95.8628 43.7933 95.7028 43.74C95.5561 43.6867 95.4095 43.66 95.2628 43.66C95.0495 43.66 94.8361 43.72 94.6228 43.84C94.4095 43.9467 94.2828 44 94.2428 44C94.1761 44 94.1428 43.94 94.1428 43.82C94.1428 43.6867 94.1828 43.54 94.2628 43.38C94.3561 43.22 94.4695 43.0867 94.6028 42.98C94.9095 42.7133 95.1161 42.52 95.2228 42.4C95.3295 42.28 95.4095 42.1333 95.4628 41.96C95.5295 41.7733 95.5961 41.4533 95.6628 41L97.1828 31.4L96.5428 31.36C96.2628 31.32 95.9828 31.3 95.7028 31.3C95.3161 31.3 94.9895 31.36 94.7228 31.48C94.4561 31.6 94.2295 31.7867 94.0428 32.04C94.0161 32.08 93.9695 32.1533 93.9028 32.26C93.8361 32.3533 93.7761 32.4 93.7228 32.4C93.6561 32.4 93.6228 32.34 93.6228 32.22C93.6228 32.0867 93.6428 31.9733 93.6828 31.88C93.8161 31.32 94.1028 30.8867 94.5428 30.58C94.9828 30.2733 95.5228 30.12 96.1628 30.12L96.8228 30.14C97.1695 30.1667 97.4628 30.18 97.7028 30.18C97.9428 30.18 98.1961 30.1667 98.4628 30.14L98.8828 30.12C98.8161 30.4533 98.7828 30.7333 98.7828 30.96C98.7828 31.52 98.9161 32.1733 99.1828 32.92C99.4628 33.6667 99.8895 34.5733 100.463 35.64L101.583 37.76C102.049 38.6 102.396 39.3 102.623 39.86H102.663L103.763 32.52C103.963 31.2267 104.249 30.16 104.623 29.32C105.009 28.48 105.496 27.8267 106.083 27.36C106.509 27 106.956 26.74 107.423 26.58C107.903 26.4067 108.536 26.2867 109.323 26.22C109.456 26.2067 109.649 26.1733 109.903 26.12C110.023 26.0667 110.103 26.04 110.143 26.04C110.209 26.04 110.243 26.08 110.243 26.16C110.243 26.32 110.149 26.5 109.963 26.7C109.776 26.9 109.456 27.0267 109.003 27.08C108.923 27.0933 108.716 27.12 108.383 27.16C108.063 27.1867 107.763 27.2667 107.483 27.4C107.216 27.5333 106.963 27.7267 106.723 27.98C106.296 28.4467 105.956 29.0333 105.703 29.74C105.449 30.4467 105.243 31.28 105.083 32.24L103.523 41.82C103.483 42.1133 103.356 42.4467 103.143 42.82C102.943 43.1933 102.716 43.52 102.463 43.8C102.223 44.0667 102.023 44.2 101.863 44.2ZM110.799 49.1C110.132 49.1 109.545 48.9667 109.039 48.7C108.545 48.4467 108.299 48.1267 108.299 47.74C108.299 47.5267 108.372 47.2867 108.519 47.02C108.679 46.7667 108.859 46.5467 109.059 46.36C109.259 46.1733 109.419 46.08 109.539 46.08C109.619 46.08 109.665 46.14 109.679 46.26C109.919 46.9267 110.199 47.4 110.519 47.68C110.852 47.96 111.259 48.1 111.739 48.1C112.205 48.1 112.592 47.9667 112.899 47.7C113.219 47.4333 113.479 47.0067 113.679 46.42C113.892 45.8333 114.079 45.0333 114.239 44.02L114.519 42.38C113.425 43.46 112.279 44 111.079 44C110.039 44 109.212 43.5733 108.599 42.72C107.999 41.8667 107.699 40.6333 107.699 39.02C107.699 37.2467 108.059 35.6667 108.779 34.28C109.499 32.8933 110.412 31.82 111.519 31.06C112.639 30.3 113.752 29.92 114.859 29.92C115.552 29.92 116.159 30.06 116.679 30.34C117.212 30.6067 117.479 31.0133 117.479 31.56C117.479 31.68 117.445 31.8533 117.379 32.08C117.312 32.3067 117.192 32.56 117.019 32.84C116.939 32.9467 116.872 33.0267 116.819 33.08C116.765 33.12 116.699 33.14 116.619 33.14C116.539 33.14 116.479 33.1 116.439 33.02C116.399 32.94 116.365 32.84 116.339 32.72C116.325 32.5867 116.312 32.4933 116.299 32.44C116.192 31.9467 115.972 31.58 115.639 31.34C115.305 31.1 114.839 30.98 114.239 30.98C113.159 30.98 112.252 31.3933 111.519 32.22C110.799 33.0333 110.259 34.04 109.899 35.24C109.552 36.4267 109.379 37.58 109.379 38.7C109.379 39.98 109.612 40.9533 110.079 41.62C110.545 42.2867 111.185 42.62 111.999 42.62C112.532 42.62 113.052 42.4667 113.559 42.16C114.065 41.8533 114.485 41.36 114.819 40.68L115.219 37.72C115.245 37.4 115.425 37.08 115.759 36.76C116.105 36.4267 116.425 36.26 116.719 36.26C116.879 36.26 116.959 36.3 116.959 36.38C116.959 36.4067 116.885 36.52 116.739 36.72C116.605 36.9067 116.512 37.2267 116.459 37.68L115.839 42.78C115.492 44.8067 114.885 46.3667 114.019 47.46C113.165 48.5533 112.092 49.1 110.799 49.1ZM118.339 44C118.299 44 118.272 43.98 118.259 43.94C118.232 43.9 118.219 43.86 118.219 43.82C118.219 43.6467 118.292 43.4467 118.439 43.22C118.585 42.98 118.765 42.78 118.979 42.62C119.205 42.4467 119.419 42.36 119.619 42.36H120.079C120.265 42.12 120.419 41.8467 120.539 41.54C120.672 41.22 120.785 40.7667 120.879 40.18L122.099 33.06C122.179 32.5133 122.345 32 122.599 31.52C122.852 31.04 123.232 30.5533 123.739 30.06C124.632 29.1667 125.619 28.72 126.699 28.72C126.965 28.72 127.232 28.7467 127.499 28.8C127.779 28.84 128.005 28.9067 128.179 29C128.339 29.0933 128.419 29.1733 128.419 29.24C128.419 29.36 128.265 29.4933 127.959 29.64C127.652 29.7867 127.405 29.86 127.219 29.86C127.165 29.86 127.019 29.8267 126.779 29.76C126.539 29.6933 126.292 29.66 126.039 29.66C125.572 29.66 125.132 29.82 124.719 30.14C124.452 30.3533 124.232 30.6667 124.059 31.08C123.899 31.4933 123.759 32.02 123.639 32.66L122.159 41.02C122.105 41.3 122.019 41.5733 121.899 41.84C121.779 42.0933 121.639 42.2933 121.479 42.44V42.46C121.732 42.5133 122.192 42.5667 122.859 42.62C123.525 42.66 124.045 42.68 124.419 42.68C125.579 42.68 126.632 42.4 127.579 41.84C127.699 41.76 127.785 41.72 127.839 41.72C127.932 41.72 127.979 41.7933 127.979 41.94C127.979 42.1933 127.792 42.4867 127.419 42.82C127.059 43.14 126.565 43.42 125.939 43.66C125.325 43.8867 124.672 44 123.979 44C123.645 44 123.025 43.9467 122.119 43.84C121.985 43.8267 121.685 43.7933 121.219 43.74C120.752 43.6867 120.332 43.66 119.959 43.66C119.572 43.66 119.279 43.6867 119.079 43.74C118.892 43.78 118.739 43.8333 118.619 43.9C118.485 43.9667 118.392 44 118.339 44ZM130.11 44C130.03 44 129.99 43.9533 129.99 43.86C129.99 43.58 130.143 43.3067 130.45 43.04C130.677 42.8267 130.843 42.64 130.95 42.48C131.07 42.3067 131.17 42.08 131.25 41.8C131.343 41.5067 131.437 41.0733 131.53 40.5L133.01 31.38H132.93C132.29 31.38 131.803 31.4467 131.47 31.58C131.15 31.7133 130.903 31.8533 130.73 32C130.557 32.1333 130.45 32.2 130.41 32.2C130.33 32.2 130.29 32.14 130.29 32.02C130.29 31.9 130.31 31.8 130.35 31.72C130.497 31.2533 130.857 30.8733 131.43 30.58C132.003 30.2733 132.79 30.12 133.79 30.12C134.257 30.12 134.837 30.1533 135.53 30.22C136.597 30.2867 137.237 30.32 137.45 30.32C138.223 30.32 138.79 30.2533 139.15 30.12C139.523 29.9867 139.737 29.92 139.79 29.92C139.843 29.92 139.877 29.9333 139.89 29.96C139.917 29.9733 139.93 30.0067 139.93 30.06C139.93 30.22 139.823 30.4133 139.61 30.64C139.41 30.8667 139.097 31.0667 138.67 31.24C138.243 31.4133 137.717 31.5 137.09 31.5C136.85 31.5 136.617 31.4933 136.39 31.48C136.177 31.4667 135.983 31.4533 135.81 31.44C135.197 31.3867 134.763 31.36 134.51 31.36L133.73 36.18H137.49C137.597 36.18 137.65 36.2267 137.65 36.32C137.65 36.4133 137.563 36.5733 137.39 36.8C137.23 37.0133 137.023 37.2133 136.77 37.4C136.53 37.5733 136.297 37.66 136.07 37.66C136.003 37.66 135.837 37.6333 135.57 37.58C135.09 37.46 134.643 37.4 134.23 37.4H133.57L132.89 41.32C132.863 41.5467 132.803 41.7667 132.71 41.98C132.63 42.1933 132.543 42.3533 132.45 42.46V42.48C132.73 42.56 133.07 42.6267 133.47 42.68C133.87 42.72 134.243 42.74 134.59 42.74C135.777 42.74 136.83 42.4467 137.75 41.86C137.79 41.8467 137.83 41.8267 137.87 41.8C137.923 41.7733 137.97 41.76 138.01 41.76C138.103 41.76 138.15 41.8267 138.15 41.96C138.15 42.24 137.97 42.54 137.61 42.86C137.25 43.18 136.79 43.4533 136.23 43.68C135.67 43.8933 135.097 44 134.51 44C134.11 44 133.497 43.9333 132.67 43.8C132.057 43.7067 131.63 43.66 131.39 43.66C131.11 43.66 130.843 43.72 130.59 43.84C130.337 43.9467 130.177 44 130.11 44ZM143.131 44.2C142.531 44.2 142.018 44.08 141.591 43.84C141.164 43.5867 140.838 43.2867 140.611 42.94C140.398 42.5933 140.278 42.2667 140.251 41.96C140.251 41.6933 140.324 41.42 140.471 41.14C140.618 40.86 140.791 40.6267 140.991 40.44C141.191 40.2533 141.344 40.16 141.451 40.16C141.518 40.16 141.551 40.2 141.551 40.28C141.618 41.0133 141.818 41.6867 142.151 42.3C142.484 42.9 143.084 43.2 143.951 43.2C144.644 43.2 145.198 42.9867 145.611 42.56C146.024 42.1333 146.231 41.54 146.231 40.78C146.231 40.3267 146.144 39.9067 145.971 39.52C145.798 39.1333 145.511 38.7 145.111 38.22L143.151 35.9C142.938 35.62 142.771 35.3333 142.651 35.04C142.531 34.7333 142.471 34.3667 142.471 33.94C142.471 33.2467 142.631 32.5933 142.951 31.98C143.271 31.3667 143.738 30.8733 144.351 30.5C144.964 30.1133 145.678 29.92 146.491 29.92C147.158 29.92 147.704 30.06 148.131 30.34C148.558 30.6067 148.771 30.9933 148.771 31.5C148.771 31.8867 148.611 32.3333 148.291 32.84C148.171 33.04 148.038 33.14 147.891 33.14C147.784 33.14 147.711 33.0933 147.671 33C147.644 32.8933 147.618 32.7067 147.591 32.44C147.551 31.3733 146.978 30.84 145.871 30.84C145.204 30.84 144.684 31.0133 144.311 31.36C143.938 31.6933 143.751 32.1533 143.751 32.74C143.751 33.3267 143.998 33.92 144.491 34.52L146.411 36.74C147.238 37.7133 147.651 38.7333 147.651 39.8C147.651 40.5733 147.431 41.3 146.991 41.98C146.564 42.6467 145.998 43.1867 145.291 43.6C144.598 44 143.878 44.2 143.131 44.2Z" fill="url(#paint0_linear_2_4)" style="mix-blend-mode:darken"/>
<defs>
<linearGradient id="paint0_linear_2_4" x1="106" y1="-7.36023e-06" x2="89.0453" y2="48.8057" gradientUnits="userSpaceOnUse">
<stop stop-color="#E741C2"/>
<stop offset="1" stop-color="#147FFC"/>
</linearGradient>
</defs>
</svg>
